<?xml version="1.0" encoding="UTF-8" standalone="no"?>
<svg width="20px" height="20px" viewBox="0 0 20 20" version="1.1" xmlns="http://www.w3.org/2000/svg" xmlns:xlink="http://www.w3.org/1999/xlink">
    <!-- Generator: Sketch 3.7.2 (28276) - http://www.bohemiancoding.com/sketch -->
    <title>Artboard</title>
    <desc>Created with Sketch.</desc>
    <defs></defs>
    <g id="2" stroke="none" stroke-width="1" fill="none" fill-rule="evenodd">
        <g id="Artboard" fill="#687179">
            <path d="M7,12 L7,12 C9.76142375,12 12,9.76142375 12,7 C12,4.23857625 9.76142375,2 7,2 C4.23857625,2 2,4.23857625 2,7 C2,9.76142375 4.23857625,12 7,12 L7,12 L7,12 Z M7,14 L7,14 C3.13400675,14 0,10.8659932 0,7 C0,3.13400675 3.13400675,5.68434189e-14 7,5.68434189e-14 C10.8659932,5.68434189e-14 14,3.13400675 14,7 C14,10.8659932 10.8659932,14 7,14 L7,14 L7,14 Z" id="Oval-1"></path>
            <polygon id="Rectangle-14" points="11.6071064 13.7284267 11.9606598 11.9606598 13.7284267 11.6071064 19.385281 17.2639606 17.2639606 19.385281"></polygon>
        </g>
    </g>
</svg>