<?xml version="1.0" encoding="UTF-8" standalone="no"?>
<svg width="24px" height="24px" viewBox="0 0 24 24" version="1.1" xmlns="http://www.w3.org/2000/svg" xmlns:xlink="http://www.w3.org/1999/xlink">
    <!-- Generator: Sketch 3.7.2 (28276) - http://www.bohemiancoding.com/sketch -->
    <title>Artboard</title>
    <desc>Created with Sketch.</desc>
    <defs></defs>
    <g id="2" stroke="none" stroke-width="1" fill="none" fill-rule="evenodd">
        <g id="Artboard" fill="#554AE1">
            <path d="M15.5785734,6.82267142 L21.7178417,6.82267142 L21.7178417,4.91225015 L15.5785734,4.91225015 L15.5785734,6.82267142 Z M21.1082349,12.6088958 L16.2193805,12.6088958 C16.2193805,12.6088958 16.5385841,10.2187092 18.8378097,10.2187092 C21.1370353,10.2187092 21.1082349,12.6088958 21.1082349,12.6088958 L21.1082349,12.6088958 Z M18.780209,7.94588392 C13.0561453,7.94588392 13.0609454,13.9051502 13.0609454,13.9051502 C13.0609454,13.9051502 12.667341,19.8356162 18.780209,19.8356162 C18.780209,19.8356162 23.8730657,20.1380196 23.8730657,15.7099703 L21.2546366,15.7099703 C21.2546366,15.7099703 21.3410375,17.3779889 18.86661,17.3779889 C18.86661,17.3779889 16.2481808,17.5603909 16.2481808,14.6803589 L23.9594667,14.6803589 C23.9594667,14.6803589 24.8042761,7.94588392 18.780209,7.94588392 L18.780209,7.94588392 Z M7.52648377,16.753982 L3.41283798,16.753982 L3.41283798,12.6088958 L7.7448862,12.6088958 C7.7448862,12.6088958 9.31450367,12.5875356 9.31450367,14.7379595 C9.31450367,16.5523797 8.14329063,16.7395818 7.52648377,16.753982 L7.52648377,16.753982 Z M3.41283798,6.75547067 L7.7448862,6.75547067 C7.7448862,6.75547067 8.79849793,6.75547067 8.79849793,8.37068865 C8.79849793,9.9835066 8.17929104,10.2187092 7.47608321,10.2187092 L3.41283798,10.2187092 L3.41283798,6.75547067 L3.41283798,6.75547067 Z M9.68650781,11.0803188 C9.68650781,11.0803188 11.9569331,10.9051169 11.9569331,8.13068597 C11.9569331,5.35385507 10.0993124,4 7.7448862,4 L0,4 L0,19.5116126 L7.7448862,19.5116126 C7.7448862,19.5116126 12.4729388,19.6676144 12.4729388,14.9323617 C12.4729388,14.9323617 12.6793411,11.0803188 9.68650781,11.0803188 L9.68650781,11.0803188 Z" id="Fill-194"></path>
        </g>
    </g>
</svg>