<?xml version="1.0" encoding="UTF-8" standalone="no"?>
<svg width="50px" height="81px" viewBox="0 0 50 81" version="1.1" xmlns="http://www.w3.org/2000/svg" xmlns:xlink="http://www.w3.org/1999/xlink">
    <!-- Generator: Sketch 3.7.2 (28276) - http://www.bohemiancoding.com/sketch -->
    <title>logo</title>
    <desc>Created with Sketch.</desc>
    <defs></defs>
    <g id="2" stroke="none" stroke-width="1" fill="none" fill-rule="evenodd">
        <g id="logo">
            <path d="M0,0 L50,0 L50,56.008114 C50,58.7650565 47.9152195,61.8339122 45.3634039,62.8546385 L0,81 L0,0 Z" id="Rectangle-2" fill="#554AE1"></path>
            <path d="M21.504,51 C20.016,51 18.72,50.712 17.52,50.136 C15.552,49.176 15.456,49.128 14.16,47.784 L13.344,46.968 L12.96,46.44 L17.616,40.392 L18.336,41.112 C18.96,42.024 20.64,43.032 21.552,43.032 C22.992,43.032 23.712,41.304 23.712,37.8 L23.712,17.448 L28.656,17.4 L28.656,37.848 C28.656,43.608 27.072,46.536 23.28,47.688 C22.608,47.88 21.984,47.976 21.408,47.976 C20.064,47.976 18.816,47.496 17.232,46.392 L17.088,46.248 L17.04,46.248 L18.048,44.856 L18.096,44.904 C18.144,44.904 18.192,44.952 18.24,45 C19.344,45.816 20.4,46.2 21.456,46.2 C22.128,46.2 22.56,46.152 22.8,46.008 C25.68,45.192 26.928,42.792 26.928,37.848 L26.928,19.176 L25.44,19.176 L25.44,37.8 C25.44,42.456 24.144,44.76 21.552,44.76 C20.448,44.76 19.2,44.184 17.808,43.032 L15.168,46.392 C16.56,48.12 19.008,49.224 21.504,49.224 C22.032,49.224 22.56,49.176 23.136,49.08 C28.176,48.12 30.192,44.664 30.192,36.792 L30.192,17.448 L31.92,17.448 L31.92,36.792 C31.92,45.624 29.52,49.656 23.424,50.808 C23.184,50.952 22.56,51 21.504,51 L21.504,51 Z" id="J" fill="#FFFFFF"></path>
        </g>
    </g>
</svg>